<?xml version="1.0" ?><!DOCTYPE svg  PUBLIC '-//W3C//DTD SVG 1.1//EN'  'http://www.w3.org/Graphics/SVG/1.1/DTD/svg11.dtd'><svg enable-background="new 0 0 512 512" height="512px" version="1.1" viewBox="0 0 512 512" width="512px" xml:space="preserve" xmlns="http://www.w3.org/2000/svg" xmlns:xlink="http://www.w3.org/1999/xlink"><g id="Baground"><circle cx="256" cy="256" fill="#7FA6C6" r="256"/></g><g id="Shadow"><path d="M512,256c0-4.714-0.137-9.396-0.389-14.047L329.891,94.046l-6.659,6.392l-68.104-67.366v59.299   c0,0-72.496,58.599-75.383,67.261c-2.888,8.663,0,35.062,0,35.062l17.737,14.437l1.513,18.012l-59.798-54.593l3.287,8.05   l-1.237,11.55l-23.261-19.297c0,0-4.513,3.691-3.688,10.566c0.825,6.875,10.175,12.925,10.175,12.925l-1.786,40.884l93.359,92.762   l-18.743,49.769l159.017,111.83C447.841,452.567,512,361.78,512,256z" opacity="0.1"/></g><g id="Flame"><polygon fill="#E25252" points="278.914,379.731 284.814,408.983 286.374,395.577 295.036,430.082 300.868,398.207    304.733,408.983 309.514,379.731  "/><polygon fill="#E25252" points="205.783,379.799 212.167,425.01 215.466,400.346 221.241,461.281 227.841,406.149 232.791,425.01    237.441,379.748  "/><path d="M304.317,464.665c-19.406,0-36.43,2.467-46.071,6.176c-9.123-2.29-21.52-3.7-35.189-3.7   c-28.021,0-50.736,5.916-50.736,13.215c0,7.298,22.715,13.214,50.736,13.214c18.219,0,34.188-2.502,43.136-6.258   c9.822,2.339,23.275,3.783,38.125,3.783c30.071,0,45.374-6.34,45.374-13.638C349.691,470.158,334.388,464.665,304.317,464.665z" fill="#1589BC" opacity="0.5"/><path d="M300.29,468.24c-17.804,0-33.421,1.832-42.266,4.589c-8.369-1.701-19.743-2.75-32.284-2.75   c-25.706,0-46.545,4.397-46.545,9.821s20.839,9.819,46.545,9.819c16.714,0,31.364-1.859,39.573-4.649   c9.012,1.738,21.354,2.811,34.977,2.811c27.587,0,42.801-4.382,42.801-9.806S327.876,468.24,300.29,468.24z" fill="#CCA015" opacity="0.5"/><polygon fill="#CCA015" points="209.805,379.759 212.469,407.642 215.15,386.743 221.345,432.667 227.662,392.517 232.337,411.561    233.626,379.759  "/><polygon fill="#1C1C1C" opacity="0.2" points="222.295,379.787 221.131,460.337 227.841,406.149 232.791,425.01 237.441,379.748     "/><polygon fill="#CCA015" points="281.423,379.731 284.208,395.371 287.301,389.802 295.18,419.708 300.212,390.214 304.337,399.29    307.121,379.697  "/><ellipse cx="224.5" cy="479.003" fill="#E25252" opacity="0.5" rx="24.337" ry="4.022"/><ellipse cx="298.473" cy="476.941" fill="#E25252" opacity="0.5" rx="18.493" ry="3.503"/><polygon fill="#1C1C1C" opacity="0.2" points="295.036,379.731 295.036,429.985 300.868,398.207 304.733,408.983 309.514,379.731     "/></g><g id="Leg"><path d="M294.543,324.843c-13.616,0.002-24.649,24.589-24.645,54.916l49.308-0.005   C319.202,349.426,308.16,324.842,294.543,324.843z" fill="#C6C6C6"/><path d="M318.952,371.928c-20.763,5.411-43.805,1.352-48.819,0.349c-0.15,2.448-0.233,4.942-0.233,7.482   l49.308-0.005C319.207,377.095,319.117,374.485,318.952,371.928z" fill="#A9AAAD"/><g><path d="M221.945,324.843c-13.616,0.002-24.649,24.589-24.644,54.916l49.307-0.005    C246.603,349.426,235.561,324.842,221.945,324.843z" fill="#C6C6C6"/><path d="M246.354,371.928c-20.764,5.411-43.805,1.352-48.82,0.349c-0.15,2.448-0.234,4.942-0.233,7.482    l49.307-0.005C246.608,377.095,246.518,374.485,246.354,371.928z" fill="#A9AAAD"/><path d="M222.437,379.756l24.171-0.002c-0.005-29.961-10.782-54.299-24.171-54.884V379.756z" fill="#1C1C1C" opacity="0.2"/></g><path d="M295.036,379.756l24.171-0.002c-0.005-29.961-10.783-54.299-24.171-54.884V379.756z" fill="#1C1C1C" opacity="0.2"/></g><g id="Body"><path d="M310.797,205.206H203.343c-10.285,0-18.7,8.415-18.7,18.7v92.583c0,10.285,8.415,18.7,18.7,18.7h107.455   c10.285,0,18.699-8.415,18.699-18.7v-92.583C329.497,213.621,321.083,205.206,310.797,205.206z" fill="#FB756A"/><path d="M310.797,205.206h-56.53v129.983h56.53c10.285,0,18.699-8.415,18.699-18.7v-92.583   C329.497,213.621,321.083,205.206,310.797,205.206z" fill="#EF6962"/><linearGradient gradientUnits="userSpaceOnUse" id="SVGID_1_" x1="245.4194" x2="289.5555" y1="228.0557" y2="267.6543"><stop offset="0" style="stop-color:#E05955"/><stop offset="1" style="stop-color:#E05955;stop-opacity:0"/></linearGradient><polygon fill="url(#SVGID_1_)" points="304.935,262.548 254.199,262.342 243.818,250.965 265.775,220.526 269.048,222.847  "/><g><ellipse cx="257.254" cy="237.765" fill="#52FFC9" rx="17.737" ry="19.064"/><path d="M257.151,219.114c-0.993,0-1.966,0.093-2.913,0.262c-1.774,2.697-13.182,21.362-0.41,36.907    c1.076,0.221,2.187,0.341,3.323,0.341c9.688,0,17.54-8.397,17.54-18.755C274.691,227.51,266.838,219.114,257.151,219.114z" fill="#1C1C1C" opacity="0.2"/><path d="M272.682,228.378c-8.197,6.85-22.111,7.069-31.109,0.49" fill="none"/><path d="M273.352,245.892c-8.369,6.994-22.748,7.09-32.148,0.217" fill="none"/><g><path d="M273.611,246.202c1.149-2.554,1.793-5.416,1.793-8.436c0-10.74-8.142-19.477-18.149-19.477     s-18.149,8.737-18.149,19.477c0,3.099,0.682,6.03,1.887,8.634l-0.031,0.042c0.024,0.018,0.051,0.032,0.075,0.05     c2.988,6.368,9.134,10.75,16.219,10.75c7.187,0,13.411-4.506,16.349-11.024c0.005-0.003,0.01-0.006,0.014-0.01L273.611,246.202z      M256.854,243.53c6.438,0,12.841-1.89,17.722-5.63c-0.019,2.784-0.606,5.423-1.644,7.792c-8.167,6.684-22.067,6.784-31.25,0.238     c-1.021-2.247-1.632-4.746-1.734-7.385C244.808,241.865,250.838,243.53,256.854,243.53z M239.935,237.547     c0.031-2.896,0.678-5.635,1.807-8.073c4.373,3.052,9.827,4.583,15.236,4.583c5.704,0,11.334-1.704,15.563-5.058     c1.174,2.362,1.889,5.025,2.017,7.853C265.284,244.374,249.886,244.694,239.935,237.547z M257.254,219.114     c6.33,0,11.876,3.676,14.898,9.147c-7.988,6.444-21.3,6.649-30.046,0.466C245.067,222.999,250.746,219.114,257.254,219.114z      M257.254,256.417c-6.271,0-11.776-3.606-14.816-8.994c4.441,2.776,9.773,4.173,15.025,4.173c5.32,0,10.544-1.429,14.655-4.264     C269.089,252.769,263.561,256.417,257.254,256.417z" fill="#3EB54A"/></g></g><g><rect fill="#F4343D" height="60.077" width="85.425" x="215.443" y="262.678"/><rect fill="#EF3F48" height="56.921" width="81.542" x="217.6" y="264.185"/><rect fill="#1C1C1C" height="60.077" opacity="0.2" width="39.363" x="261.504" y="262.678"/></g><g><ellipse cx="222.265" cy="268.844" fill="#818285" rx="3.108" ry="2.815"/><polygon fill="#5A5A5D" points="224.282,267.173 219.779,269.75 220.248,270.514 224.751,267.938   "/></g><g><ellipse cx="294.726" cy="268.844" fill="#818285" rx="3.108" ry="2.815"/><polygon fill="#5A5A5D" points="296.744,267.173 292.24,269.75 292.708,270.514 297.212,267.938   "/></g><g><ellipse cx="222.265" cy="316.074" fill="#818285" rx="3.108" ry="2.814"/><polygon fill="#5A5A5D" points="224.282,314.403 219.779,316.98 220.248,317.745 224.751,315.167   "/></g><g><ellipse cx="294.726" cy="316.074" fill="#818285" rx="3.108" ry="2.814"/><polygon fill="#5A5A5D" points="296.744,314.403 292.24,316.98 292.708,317.745 297.212,315.167   "/></g><ellipse cx="200.979" cy="289.686" fill="#72DD72" rx="10.643" ry="9.9"/><path d="M202.088,280.179c-4.4,1.222-7.631,5.206-7.631,9.944c0,3.822,2.104,7.151,5.226,8.94   c0.367,0.036,0.739,0.057,1.116,0.057c5.714,0,10.347-4.259,10.347-9.511C211.146,284.759,207.192,280.763,202.088,280.179z" fill="#1C1C1C" opacity="0.2"/><ellipse cx="314.885" cy="289.686" fill="#FC5959" rx="10.643" ry="9.9"/><path d="M315.055,280.11c-3.619,1.705-6.149,5.592-6.149,10.117c0,3.646,1.646,6.868,4.175,8.88   c0.544,0.081,1.098,0.134,1.668,0.134c5.743,0,10.398-4.285,10.398-9.572C325.147,284.476,320.654,280.259,315.055,280.11z" fill="#1C1C1C" opacity="0.2"/><g><path d="M201.042,289.582c0,2.295-1.458,3.513-3.239,3.513c-1.842,0-3.136-1.366-3.136-3.384    c0-2.117,1.377-3.503,3.24-3.503C199.811,286.208,201.042,287.603,201.042,289.582z M195.629,289.69    c0,1.426,0.807,2.701,2.226,2.701c1.429,0,2.236-1.257,2.236-2.771c0-1.325-0.725-2.712-2.226-2.712    C196.375,286.909,195.629,288.225,195.629,289.69z" fill="#2175BC"/><path d="M202.215,292.985v-6.67h0.983l2.236,3.375c0.517,0.782,0.921,1.485,1.252,2.167l0.02-0.009    c-0.083-0.893-0.103-1.703-0.103-2.742v-2.791h0.849v6.67h-0.911l-2.215-3.384c-0.486-0.741-0.952-1.504-1.304-2.226l-0.031,0.01    c0.052,0.84,0.072,1.642,0.072,2.75v2.85H202.215z" fill="#2175BC"/></g><g><path d="M313.386,289.918c0,2.295-1.458,3.513-3.238,3.513c-1.843,0-3.137-1.366-3.137-3.384    c0-2.117,1.378-3.503,3.239-3.503C312.156,286.544,313.386,287.94,313.386,289.918z M307.974,290.027    c0,1.425,0.808,2.701,2.226,2.701c1.428,0,2.234-1.257,2.234-2.771c0-1.325-0.724-2.711-2.225-2.711    C308.72,287.247,307.974,288.562,307.974,290.027z" fill="#FAED25"/><path d="M314.559,286.652h3.757v0.724h-2.855v2.216h2.64v0.713h-2.64v3.018h-0.901V286.652z" fill="#FAED25"/><path d="M319.604,286.652h3.757v0.724h-2.856v2.216h2.64v0.713h-2.64v3.018h-0.9V286.652z" fill="#FAED25"/></g><path d="M286.498,269.335h-0.464c-1.06,0-1.926,0.866-1.926,1.925v41.799   c0,1.059,0.866,1.925,1.925,1.925h0.465c1.059,0,1.925-0.866,1.925-1.925V271.26C288.422,270.202,287.556,269.335,286.498,269.335z   " fill="#1C1C1C" opacity="0.4"/><path d="M286.265,274.01c-1.187,0-2.157,0.929-2.157,2.063v7.425c0,1.135,0.971,2.063,2.157,2.063   s2.157-0.928,2.157-2.063v-7.425C288.422,274.939,287.452,274.01,286.265,274.01z" fill="#FAED25"/><path d="M286.265,287.21c-1.187,0-2.157,0.928-2.157,2.063v7.425c0,1.135,0.971,2.063,2.157,2.063   s2.157-0.928,2.157-2.063v-7.425C288.422,288.138,287.452,287.21,286.265,287.21z" fill="#009548"/><path d="M286.265,300.41c-1.187,0-2.157,0.929-2.157,2.063v7.425c0,1.135,0.971,2.063,2.157,2.063   s2.157-0.928,2.157-2.063v-7.425C288.422,301.338,287.452,300.41,286.265,300.41z" fill="#2175BC"/><path d="M309.1,232.705c-0.286-5.591,1.944-11.347,6.123-15.791l-0.601-0.564   c-4.331,4.607-6.645,10.583-6.347,16.398c0.258,5.001,2.418,9.504,6.085,12.68l0.54-0.624   C311.406,241.776,309.345,237.48,309.1,232.705z" fill="#D64B47"/><path d="M205.366,234.526c0.287-5.591-1.944-11.347-6.123-15.791l0.601-0.564   c4.331,4.607,6.644,10.583,6.346,16.398c-0.257,5.001-2.418,9.504-6.084,12.68l-0.541-0.624   C203.061,243.597,205.121,239.301,205.366,234.526z" fill="#D64B47"/><path d="M314.885,279.786c-5.877,0-10.643,4.432-10.643,9.899s4.766,9.9,10.643,9.9   c5.878,0,10.644-4.433,10.644-9.9S320.763,279.786,314.885,279.786z M314.885,298.982c-5.519,0-9.994-4.163-9.994-9.297   s4.476-9.296,9.994-9.296c5.52,0,9.994,4.162,9.994,9.296S320.405,298.982,314.885,298.982z" fill="#B72929"/><path d="M200.979,279.786c-5.878,0-10.643,4.432-10.643,9.899s4.765,9.9,10.643,9.9s10.643-4.433,10.643-9.9   S206.857,279.786,200.979,279.786z M200.979,299.049c-5.56,0-10.066-4.192-10.066-9.364s4.507-9.363,10.066-9.363   s10.067,4.191,10.067,9.363S206.539,299.049,200.979,299.049z" fill="#198E19"/></g><g id="Hand"><path d="M386.923,201.73l-0.775-10.691l-16.199,0.746l0.699,28.524l-44.674-1.798   c-7.245,0.28-12.497,6.139-11.729,13.083c0.767,6.946,7.261,12.349,14.506,12.068c0,0,50.668-1.013,50.644-1.238   c-0.025-0.225,7.766-1.544,8.888-8.698S386.923,201.73,386.923,201.73z" fill="#B7B7B6"/><path d="M384.746,165.489c0.049,1.973,0.064,3.945,0.067,5.918c1.715,1.63,2.866,3.693,3.117,5.979   c0.611,5.558-4.261,10.27-10.883,10.524c-6.623,0.255-12.486-4.045-13.098-9.603c-0.252-2.297,0.44-4.443,1.801-6.193   c-0.702-1.717-1.44-3.424-2.153-5.138c-3.562,2.912-5.577,7.174-5.063,11.855c0.917,8.337,9.468,14.796,19.101,14.426   c9.632-0.37,16.697-7.428,15.78-15.766C392.858,172.422,389.474,168.056,384.746,165.489z" fill="#5A5A5D"/><g><path d="M383.415,246.344l-0.098-0.819c3.474-0.419,6.484-1.986,8.052-4.194c0.986-1.39,1.333-2.926,1-4.444    l0.806-0.177c0.384,1.751-0.008,3.514-1.134,5.098C390.341,244.202,387.117,245.898,383.415,246.344z" fill="#4D7A99"/></g><path d="M185.967,221.343l-46.271,2.647l-2.088-27.385l-16.918-0.381l0.25,10.274c0,0-0.127,23.889,1.746,30.73   c1.874,6.841,10.104,7.947,10.1,8.163s52.778,0.143,52.778,0.143c7.561,0.12,13.781-5.198,13.893-11.879   C199.566,226.976,193.528,221.463,185.967,221.343z" fill="#C6C6C6"/><path d="M171.693,222.16l-31.805,1.615l-2.183-27.19l-1.89-0.019c-0.141,0.196-0.282,0.392-0.413,0.604   c0,0,4.537,22.894,2.063,28.462C137.464,225.631,157.243,223.49,171.693,222.16z" fill="#AFAFAE"/><path d="M139.196,172.551c-0.199,1.888-0.432,3.774-0.678,5.66c1.5,1.65,2.385,3.683,2.347,5.881   c-0.092,5.346-5.529,9.592-12.145,9.486c-6.615-0.107-11.904-4.527-11.812-9.873c0.038-2.209,0.998-4.224,2.569-5.826   c-0.481-1.678-1.001-3.35-1.493-5.026c-3.908,2.596-6.449,6.563-6.526,11.066c-0.138,8.019,7.551,14.645,17.173,14.801   c9.623,0.155,17.536-6.219,17.673-14.237C146.388,179.607,143.574,175.253,139.196,172.551z" fill="#656566"/><g><path d="M128.046,248.961c-0.838,0-1.698-0.17-2.557-0.512c-2.729-1.084-5.14-3.815-6.451-7.305l0.772-0.29    c1.231,3.276,3.468,5.829,5.983,6.829c1.585,0.629,3.159,0.602,4.554-0.082l0.362,0.741    C129.866,248.755,128.969,248.961,128.046,248.961z" fill="#4D7A99"/></g></g><g id="Head"><g><rect fill="#FB756A" height="56.923" width="0.825" x="254.847" y="38.064"/></g><path d="M333.682,102.014c-0.018-5.445-4.487-9.885-9.932-9.867l-136.684,0.449   c-5.445,0.018-9.885,4.487-9.867,9.932l0.29,88.08c0.018,5.445,4.487,9.885,9.932,9.867l136.683-0.449   c5.444-0.018,9.885-4.487,9.867-9.932L333.682,102.014z" fill="#FB756A"/><g><path d="M188.94,98.4c-3.259-0.265-6.022,2.016-6.173,5.093c-0.15,3.077,2.37,5.786,5.629,6.05    c3.259,0.265,6.022-2.016,6.173-5.094C194.719,101.372,192.199,98.664,188.94,98.4z" fill="#818285"/><rect fill="#5A5A5D" height="10.157" transform="matrix(0.7885 -0.615 0.615 0.7885 -24.0427 138.0276)" width="1.728" x="187.804" y="98.893"/></g><g><path d="M323.687,98.4c-3.259-0.265-6.022,2.016-6.173,5.093s2.37,5.786,5.629,6.05    c3.259,0.265,6.022-2.016,6.173-5.094C329.465,101.372,326.946,98.664,323.687,98.4z" fill="#818285"/><rect fill="#5A5A5D" height="10.157" transform="matrix(0.7884 -0.6152 0.6152 0.7884 4.4765 220.9568)" width="1.728" x="322.551" y="98.893"/></g><g><path d="M323.687,183.373c-3.259-0.265-6.022,2.016-6.173,5.093s2.37,5.786,5.629,6.05    c3.259,0.265,6.022-2.016,6.173-5.094C329.465,186.345,326.946,183.637,323.687,183.373z" fill="#818285"/><rect fill="#5A5A5D" height="10.157" transform="matrix(0.7884 -0.6152 0.6152 0.7884 -47.7963 238.9377)" width="1.728" x="322.551" y="183.865"/></g><g><path d="M188.666,183.373c-3.26-0.265-6.023,2.016-6.173,5.093c-0.151,3.077,2.369,5.786,5.628,6.05    c3.259,0.265,6.023-2.016,6.173-5.094C194.444,186.345,191.924,183.637,188.666,183.373z" fill="#818285"/><rect fill="#5A5A5D" height="10.157" transform="matrix(0.7884 -0.6152 0.6152 0.7884 -76.3678 155.8762)" width="1.728" x="187.529" y="183.865"/></g><path d="M214.858,157.982c0.527,13.939,18.782,26.29,40.772,25.959c21.99-0.331,39.389-11.898,38.861-25.836   L214.858,157.982z" fill="#EAD5C5"/><path d="M215.585,162.245h78.522c0.299-1.35,0.437-2.732,0.384-4.14l-79.634-0.123   C214.913,159.425,215.167,160.849,215.585,162.245z" fill="#FFE7D7"/><path d="M232.069,179.02c6.68,3.177,14.823,5.053,23.562,4.922c8.508-0.128,16.322-1.943,22.684-4.922H232.069z" fill="#FFE7D7"/><path d="M323.75,92.146l-68.623,0.225v107.88l68.977-0.227c5.444-0.018,9.885-4.487,9.867-9.932   l-0.289-88.08C333.665,96.569,329.195,92.128,323.75,92.146z" fill="#1C1C1C" opacity="0.1"/><polygon fill="#818182" points="301.466,111.378 285.946,111.43 278.22,121.961 286.015,132.442 301.536,132.391 309.261,121.859     "/><polygon fill="#818182" points="234.617,122.104 226.892,132.636 211.372,132.688 203.577,122.206 211.303,111.674    226.823,111.624  "/><g><path d="M266.729,38.599l-0.825-0.006c0.021-2.986-0.686-5.79-1.993-7.897c-1.271-2.047-2.952-3.182-4.735-3.195    l0.006-0.825c2.077,0.015,4.006,1.288,5.431,3.585C266,32.499,266.751,35.459,266.729,38.599z" fill="#3E708C"/></g><g><path d="M270.481,38.995l-0.825-0.005c0.064-8.941-4.232-16.247-9.579-16.285l0.006-0.825    C265.884,21.921,270.548,29.599,270.481,38.995z" fill="#4D7A99"/></g><ellipse cx="255.379" cy="38.892" fill="#52FFC9" rx="5.82" ry="4.549" transform="matrix(0.0072 -1 1 0.0072 214.6454 293.9844)"/><polygon fill="#4CD3D3" points="300.488,129.452 294.714,126.792 289.039,129.18 290.028,123.859 285.322,119.962 291.708,119.335    294.475,114.539 297.432,119.471 303.848,120.404 299.291,124.08  "/><polygon fill="#4CD3D3" points="224.591,129.124 218.817,126.463 213.141,128.851 214.13,123.531 209.424,119.634 215.81,119.007    218.577,114.21 221.535,119.143 227.951,120.075 223.393,123.751  "/><path d="M259.929,38.925c0.022-3.214-1.995-5.834-4.508-5.853c-0.043,0-0.084,0.006-0.126,0.007   c-1.575,0.97-2.677,3.176-2.677,5.745c0,2.697,1.214,4.989,2.915,5.876C257.956,44.586,259.906,42.055,259.929,38.925z" fill="#1C1C1C" opacity="0.1"/><polygon fill="#1C1C1C" opacity="0.1" points="218.725,111.65 218.725,132.663 226.892,132.636 234.617,122.104 226.823,111.624     "/><polygon fill="#1C1C1C" opacity="0.1" points="294.624,111.401 294.624,132.414 301.536,132.391 309.261,121.859 301.466,111.378     "/></g></svg>